HIERARCHY
ROOT Hips
{
	OFFSET 0.000000 0.000000 0.000000
	CHANNELS 6 Xposition Yposition Zposition Zrotation Yrotation Xrotation 
	JOINT LHipJoint
	{
		OFFSET 0.000000 0.000000 0.000000
		CHANNELS 3 Zrotation Yrotation Xrotation
		JOINT LeftUpLeg
		{
			OFFSET 1.363060 -1.794630 0.839290
			CHANNELS 3 Zrotation Yrotation Xrotation
			JOINT LeftLeg
			{
				OFFSET 2.448110 -6.726130 0.000000
				CHANNELS 3 Zrotation Yrotation Xrotation
				JOINT LeftFoot
				{
					OFFSET 2.562200 -7.039590 0.000000
					CHANNELS 3 Zrotation Yrotation Xrotation
					JOINT LeftToeBase
					{
						OFFSET 0.157640 -0.433110 2.322550
						CHANNELS 3 Zrotation Yrotation Xrotation
						End Site
						{
							OFFSET 0.000000 0.000000 0.000000
						}
					}
				}
			}
		}
	}
	JOINT RHipJoint
	{
		OFFSET 0.000000 0.000000 0.000000
		CHANNELS 3 Zrotation Yrotation Xrotation
		JOINT RightUpLeg
		{
			OFFSET -1.305520 -1.794630 0.839290
			CHANNELS 3 Zrotation Yrotation Xrotation
			JOINT RightLeg
			{
				OFFSET -2.542530 -6.985550 0.000000
				CHANNELS 3 Zrotation Yrotation Xrotation
				JOINT RightFoot
				{
					OFFSET -2.568260 -7.056230 0.000000
					CHANNELS 3 Zrotation Yrotation Xrotation
					JOINT RightToeBase
					{
						OFFSET -0.164730 -0.452590 2.363150
						CHANNELS 3 Zrotation Yrotation Xrotation
						End Site
						{
							OFFSET 0.000000 0.000000 0.000000
						}
					}
				}
			}
		}
	}
}
MOTION
Frames: 30
Frame Time: 0.008333
2.695589 15.258574 1.099825 64.866163 -81.820141 -24.750404 -11.070917 -2.239341 -1.717900 -13.296986 -2.293285 -62.635077 1.268199 4.990756 83.174358 4.744018 22.290557 -27.499951 -7.276300 0.000000 -1.307300 8.691944 0.389233 -2.439139 14.004884 -7.959070 -67.827189 1.611244 -6.675892 68.991648 -3.127186 -4.575815 -34.515378 3.138401 -0.000000 -27.426500
2.520047 15.301884 1.080806 66.943577 -81.994580 -26.415930 -10.851137 -2.389112 -1.703297 -14.082526 -2.692896 -65.283181 1.256986 5.155386 83.161039 4.802249 22.024469 -27.791354 -7.273900 -0.000000 -1.362700 8.675266 0.348128 -2.564416 14.007642 -8.085450 -66.946516 1.750138 -6.566007 68.048608 -3.037847 -4.201290 -34.234840 2.971299 0.000000 -29.041300
2.341974 15.344825 1.062968 69.136222 -82.172285 -28.219982 -10.629365 -2.513298 -1.680358 -14.869088 -3.121562 -67.851153 1.223281 5.310147 82.931371 4.858345 21.743239 -28.003063 -7.234000 -0.000000 -1.497000 8.651328 0.301312 -2.698770 14.009161 -8.216038 -66.006524 1.888119 -6.449586 67.067543 -2.949985 -3.853038 -33.922961 2.812000 0.000000 -30.616900
2.161041 15.387048 1.046079 71.465937 -82.343536 -30.187608 -10.409136 -2.606849 -1.645114 -15.655377 -3.589774 -70.310852 1.162904 5.450921 82.461402 4.906542 21.423758 -28.110597 -7.140800 0.000001 -1.990500 8.621641 0.252151 -2.841465 13.996128 -8.355797 -65.007990 2.022498 -6.326857 66.056971 -2.861159 -3.527378 -33.566591 2.657299 -0.000000 -32.219100
1.976679 15.428182 1.030434 73.873045 -82.510290 -32.260336 -10.192247 -2.666468 -1.593131 -16.427399 -4.101535 -72.645014 1.070247 5.575242 81.740492 4.942644 21.033588 -28.149091 -6.999400 -0.000000 -2.491901 8.588621 0.201247 -2.991413 13.971769 -8.505278 -63.952659 2.153286 -6.198732 65.025308 -2.769822 -3.213199 -33.172091 2.504700 0.000000 -33.756700
1.788508 15.467773 1.016048 76.330158 -82.670088 -34.410659 -9.980705 -2.688840 -1.519376 -17.175304 -4.662460 -74.837082 0.942261 5.679603 80.754118 4.959241 20.540215 -28.100074 -6.794600 0.000000 -3.179500 8.555208 0.150851 -3.146793 13.931093 -8.666668 -62.845825 2.279334 -6.066138 63.981963 -2.673802 -2.900960 -32.737047 2.350700 -0.000000 -35.255800
1.596058 15.505293 1.002951 78.788263 -82.823076 -36.586114 -9.775440 -2.671838 -1.419047 -17.888024 -5.275522 -76.878863 0.775754 5.761600 79.496320 4.950736 19.913662 -27.973224 -6.524300 0.000000 -3.948901 8.524820 0.102309 -3.305406 13.872827 -8.840937 -61.694530 2.400341 -5.930235 62.935440 -2.571515 -2.580396 -32.264666 2.192700 0.000000 -36.729600
1.399109 15.540310 0.991227 81.178605 -82.971984 -38.716368 -9.576908 -2.615006 -1.287630 -18.553096 -5.939855 -78.767054 0.569712 5.818765 77.963526 4.910681 19.130446 -27.753680 -6.180700 -0.000000 -4.909600 8.500791 0.055942 -3.465071 13.799079 -9.028492 -60.505731 2.516506 -5.792303 61.892260 -2.462261 -2.243781 -31.760840 2.029599 0.000000 -38.188500
1.197408 15.572404 0.980850 83.427343 -83.120093 -40.723204 -9.385298 -2.519181 -1.121263 -19.160567 -6.652530 -80.503279 0.323669 5.849139 76.156198 4.834607 18.178438 -27.434123 -5.764900 0.000000 -6.102600 8.486018 0.011011 -3.623720 13.714014 -9.229785 -59.286801 2.628461 -5.653578 60.856078 -2.346282 -1.887147 -31.232494 1.861499 0.000000 -39.646301
0.990916 15.601269 0.971752 85.457968 -83.270866 -42.528618 -9.200907 -2.386726 -0.917309 -19.703740 -7.407565 -82.091633 0.037734 5.851195 74.077409 4.720032 17.058572 -27.010253 -5.285100 0.000000 -7.568900 8.482370 -0.034077 -3.779848 13.622920 -9.445102 -58.043287 2.736848 -5.515125 59.828202 -2.224683 -1.511088 -30.686178 1.690100 -0.000000 -41.115200
0.779405 15.626584 0.963861 87.204093 -83.427710 -44.060389 -9.024525 -2.220495 -0.673767 -20.180315 -8.197742 -83.535644 -0.287977 5.823253 71.730538 4.566938 15.785146 -26.483222 -4.756500 0.000001 -9.334400 8.490876 -0.081699 -3.932302 13.532000 -9.675065 -56.779464 2.842447 -5.377571 58.806437 -2.099475 -1.121502 -30.126790 1.518500 0.000000 -42.604200
0.563049 15.648294 0.956979 88.610805 -83.593273 -45.264600 -8.857203 -2.024395 -0.390482 -20.592089 -9.013011 -84.835674 -0.653693 5.763478 69.118988 4.377650 14.383281 -25.862990 -4.200000 0.000000 -11.415500 8.511321 -0.134078 -4.081397 13.447493 -9.920441 -55.496011 2.945508 -5.241247 57.787520 -1.973109 -0.728527 -29.556447 1.350300 0.000000 -44.119000
0.341866 15.666278 0.951063 89.651241 -83.770080 -46.112941 -8.700530 -1.802837 -0.067345 -20.942629 -9.844227 -85.987425 -1.060104 5.668643 66.244458 4.157418 12.888067 -25.170386 -3.640600 0.000001 -13.761600 8.542568 -0.193394 -4.227844 13.374613 -10.181685 -54.192480 3.046036 -5.106062 56.766642 -1.848110 -0.344623 -28.973795 1.189600 -0.000000 -45.656700
0.116019 15.680558 0.945723 90.320341 -83.959875 -46.605531 -8.556147 -1.560667 0.290520 -21.243360 -10.671164 -86.975705 -1.507889 5.534929 63.108928 3.909266 11.331028 -24.410656 -3.095000 0.000000 -16.516100 8.583865 -0.260223 -4.375046 13.314963 -10.459109 -52.856387 3.142902 -4.971144 55.738823 -1.727106 0.013771 -28.374064 1.040700 0.000000 -47.236099
-0.114529 15.691091 0.941084 90.688229 -84.163484 -46.813641 -8.425533 -1.304631 0.683261 -21.493531 -11.486634 -87.786977 -1.997489 5.354965 59.716508 3.644180 9.758938 -23.634527 -2.590500 0.000000 -19.400100 8.632658 -0.335091 -4.524766 13.269678 -10.753716 -51.486268 3.235281 -4.836093 54.701315 -1.611295 0.337682 -27.749921 0.905600 -0.000000 -48.843299
-0.349369 15.697949 0.936840 90.807380 -84.385407 -46.805259 -8.309231 -1.044200 1.100335 -21.700952 -12.259423 -88.394844 -2.526303 5.121311 56.080704 3.365042 8.199966 -22.846319 -2.134200 0.000000 -22.513000 8.688237 -0.417145 -4.682669 13.237114 -11.065022 -50.057150 3.321195 -4.699580 53.650293 -1.502056 0.614659 -27.093261 0.786800 0.000000 -50.493099
-0.588669 15.700958 0.933157 90.856947 -84.628416 -46.765041 -8.207401 -0.791026 1.537413 -21.852948 -12.973903 -88.783056 -3.086383 4.823315 52.226844 3.083659 6.703915 -22.081772 -1.739400 -0.000000 -25.598700 8.748450 -0.504858 -4.850922 13.211838 -11.393142 -48.560950 3.399035 -4.561052 52.587669 -1.398673 0.845031 -26.395188 0.683100 -0.000000 -52.187000
-0.832252 15.699904 0.930044 91.010194 -84.900419 -46.881887 -8.118978 -0.560364 1.982257 -21.933281 -13.598820 -88.938473 -3.661423 4.452939 48.207081 2.808112 5.311880 -21.350643 -1.407600 -0.000000 -28.532000 8.812340 -0.596857 -5.032235 13.188879 -11.736720 -46.977599 3.467043 -4.419741 51.515013 -1.300221 1.031357 -25.648975 0.592900 -0.000000 -53.933200
-1.080100 15.694407 0.927646 91.537250 -85.209111 -47.437907 -8.043041 -0.368225 2.422796 -21.908962 -14.107701 -88.867625 -4.224134 4.007429 44.106954 2.550618 4.076851 -20.663791 -1.139000 0.000000 -31.087600 8.878476 -0.691627 -5.225752 13.161344 -12.092818 -45.296372 3.523641 -4.275323 50.438846 -1.204609 1.185646 -24.850819 0.512500 0.000001 -55.735900
-1.331972 15.684117 0.925997 92.616750 -85.566750 -48.628421 -7.979124 -0.229785 2.838116 -21.755990 -14.463265 -88.590036 -4.739384 3.497582 40.050827 2.316810 3.032896 -20.000100 -0.924500 -0.000001 -33.284300 8.946650 -0.790524 -5.428616 13.128796 -12.454083 -43.497919 3.567584 -4.127083 49.359371 -1.110817 1.315732 -23.998499 0.439700 0.000000 -57.597700
-1.588014 15.668269 0.925302 94.845397 -85.972720 -51.049871 -7.931742 -0.150077 3.219367 -21.426540 -14.658362 -88.168792 -5.164794 2.949659 36.208307 2.124511 2.241817 -19.376538 -0.762100 0.000000 -34.816400 9.012590 -0.891326 -5.631758 13.082372 -12.814973 -41.599793 3.597789 -3.975316 48.294389 -1.015429 1.449146 -23.097573 0.368800 -0.000000 -59.507400
-1.847933 15.646550 0.925358 98.725151 -86.423896 -55.206995 -7.907782 -0.124386 3.549734 -20.917048 -14.677357 -87.667838 -5.467760 2.408400 32.755705 1.974449 1.716760 -18.745280 -0.636700 -0.000001 -36.019400 9.073566 -0.994411 -5.825698 13.023819 -13.159713 -39.603567 3.612404 -3.818279 47.245184 -0.918214 1.593194 -22.147878 0.299100 0.000000 -61.463500
-2.111717 15.618189 0.926102 105.884516 -86.892843 -62.713769 -7.920057 -0.125424 3.829001 -20.212537 -14.530236 -87.195023 -5.624977 1.931792 29.904380 1.877615 1.476983 -18.131312 -0.542600 0.000000 -36.687400 9.122159 -1.087531 -5.999706 12.944999 -13.475204 -37.543655 3.607882 -3.651991 46.237803 -0.816239 1.777831 -21.160321 0.226700 -0.000001 -63.436700
-2.379025 15.582889 0.927160 119.354761 -87.325029 -76.587035 -7.969846 -0.091270 4.061254 -19.328420 -14.215427 -86.859330 -5.634500 1.578549 27.822483 1.832472 1.502566 -17.514986 -0.466200 -0.000000 -37.065200 9.168253 -1.135599 -6.145942 12.848443 -13.732978 -35.443228 3.573454 -3.461852 45.294992 -0.708000 2.021402 -20.136784 0.151300 0.000000 -65.405901
-2.643300 15.545174 0.915484 161.141738 -87.135684 -118.888691 -7.696660 0.309259 4.037437 -18.728027 -12.926439 -86.812478 -5.660579 1.469115 26.761925 1.826116 1.603720 -17.123459 -0.417500 0.000000 -37.102700 9.689698 -0.789693 -6.088027 12.341903 -13.150781 -33.273687 3.364462 -3.151817 44.645889 -0.586562 2.319207 -19.077322 0.072000 0.000000 -67.343100
-2.916453 15.495766 0.916190 177.761537 -87.180311 -135.973353 -7.570458 0.242293 4.132694 -17.594127 -12.515307 -86.812093 -5.455697 1.422893 26.661932 1.830021 1.951837 -16.381497 -0.343900 0.000000 -37.189800 9.986081 -0.933164 -6.106245 12.269581 -13.390085 -31.277846 3.326334 -3.022131 43.804893 -0.464013 2.666169 -18.010159 -0.007599 0.000000 -69.223601
-3.191321 15.439542 0.916178 -168.750658 -87.039743 -149.948181 -7.510944 0.096921 4.152373 -16.505639 -12.069395 -87.015438 -5.157756 1.556903 27.600947 1.832087 2.361574 -15.550416 -0.256400 -0.000000 -37.151900 10.226821 -1.155360 -6.072227 12.125056 -13.633961 -29.380062 3.294069 -2.935774 43.063493 -0.337524 3.075340 -16.922136 -0.085399 0.000000 -71.026400
-3.467145 15.377013 0.915161 -159.126472 -86.707185 -160.081133 -7.539318 -0.074050 4.103278 -15.499184 -11.545236 -87.440135 -4.774657 1.860245 29.502401 1.821032 2.779019 -14.611116 -0.149900 -0.000000 -36.984500 10.391931 -1.402794 -5.995511 11.899865 -13.850452 -27.573506 3.250849 -2.871580 42.460638 -0.208695 3.543538 -15.793432 -0.155500 0.000000 -72.748201
-3.743070 15.308866 0.912927 -152.647869 -86.214340 -167.098359 -7.622988 -0.240159 3.984566 -14.598916 -10.902758 -88.052852 -4.321127 2.298316 32.236721 1.784772 3.142622 -13.559089 -0.026800 0.000000 -36.583300 10.513839 -1.639183 -5.883067 11.601528 -14.022398 -25.845744 3.182134 -2.816797 42.023564 -0.080123 4.053811 -14.603276 -0.211200 -0.000001 -74.376400
-4.018048 15.236209 0.909106 -148.442429 -85.608707 -171.877119 -7.727544 -0.403875 3.801215 -13.795661 -10.141491 -88.778019 -3.809830 2.814986 35.608999 1.723575 3.432922 -12.416867 0.102700 -0.000000 -35.731700 10.619430 -1.852521 -5.742078 11.235429 -14.137557 -24.195535 3.078852 -2.771124 41.768745 0.043467 4.569303 -13.316684 -0.243300 -0.000000 -75.937400
